<svg xmlns="http://www.w3.org/2000/svg">
  <symbol id="paw" viewBox="0 0 24 24">
    <ellipse cx="12" cy="16" rx="6" ry="4.5" fill="currentColor"/>
    <circle cx="6" cy="10" r="2.2" fill="currentColor"/>
    <circle cx="10" cy="7" r="2.2" fill="currentColor"/>
    <circle cx="14" cy="7" r="2.2" fill="currentColor"/>
    <circle cx="18" cy="10" r="2.2" fill="currentColor"/>
  </symbol>
  <symbol id="story" viewBox="0 0 24 24">
    <path d="M4 5.5c3.2-.7 5.8 0 8 2.1 2.2-2.1 4.8-2.8 8-2.1v13c-3.2-.7-5.8 0-8 2.1-2.2-2.1-4.8-2.8-8-2.1z" fill="none" stroke="currentColor" stroke-width="1.8" stroke-linejoin="round"/>
    <path d="M12 7.6v13" fill="none" stroke="currentColor" stroke-width="1.8"/>
  </symbol>
  <symbol id="steps" viewBox="0 0 24 24">
    <circle cx="6" cy="17" r="2" fill="currentColor"/>
    <circle cx="12" cy="12" r="2" fill="currentColor"/>
    <circle cx="18" cy="7" r="2" fill="currentColor"/>
    <path d="m7.5 15.7 3-2.5m3-2.5 3-2.5" fill="none" stroke="currentColor" stroke-width="1.8" stroke-linecap="round"/>
  </symbol>
  <symbol id="sample" viewBox="0 0 24 24">
    <path d="M6 3h8l4 4v14H6z" fill="none" stroke="currentColor" stroke-width="1.8" stroke-linejoin="round"/>
    <path d="M14 3v5h5M9 12h6M9 16h6" fill="none" stroke="currentColor" stroke-width="1.8" stroke-linecap="round"/>
  </symbol>
  <symbol id="trust" viewBox="0 0 24 24">
    <path d="M12 3 20 6v5c0 5-3.1 8.4-8 10-4.9-1.6-8-5-8-10V6z" fill="none" stroke="currentColor" stroke-width="1.8" stroke-linejoin="round"/>
    <path d="m8.5 12 2.2 2.2 4.8-5" fill="none" stroke="currentColor" stroke-width="1.8" stroke-linecap="round" stroke-linejoin="round"/>
  </symbol>
  <symbol id="faq" viewBox="0 0 24 24">
    <circle cx="12" cy="12" r="9" fill="none" stroke="currentColor" stroke-width="1.8"/>
    <path d="M9.7 9a2.5 2.5 0 0 1 4.8 1c0 2-2.5 2-2.5 4" fill="none" stroke="currentColor" stroke-width="1.8" stroke-linecap="round"/>
    <circle cx="12" cy="17.2" r="1" fill="currentColor"/>
  </symbol>
  <symbol id="support" viewBox="0 0 24 24">
    <path d="M5 13v-2a7 7 0 0 1 14 0v2" fill="none" stroke="currentColor" stroke-width="1.8"/>
    <path d="M5 12H3v5h3v-5Zm13 0h3v5h-3v-5Zm0 5c0 2-2 3-5 3" fill="none" stroke="currentColor" stroke-width="1.8" stroke-linecap="round" stroke-linejoin="round"/>
  </symbol>
  <symbol id="privacy" viewBox="0 0 24 24">
    <rect x="5" y="10" width="14" height="10" rx="2" fill="none" stroke="currentColor" stroke-width="1.8"/>
    <path d="M8 10V8a4 4 0 0 1 8 0v2" fill="none" stroke="currentColor" stroke-width="1.8"/>
  </symbol>
</svg>
